<svg width="29" height="29" viewBox="0 0 29 29" fill="none" xmlns="http://www.w3.org/2000/svg">
<path fill-rule="evenodd" clip-rule="evenodd" d="M14.8991 21.5553C16.5755 20.6985 22.9582 17.0323 22.9582 10.8751C22.9582 6.20367 19.1712 2.41675 14.4998 2.41675C9.82843 2.41675 6.0415 6.20367 6.0415 10.8751C6.0415 17.0323 12.4241 20.6985 14.1005 21.5553C14.3542 21.6849 14.6455 21.6849 14.8991 21.5553ZM14.4998 14.5001C16.5019 14.5001 18.1248 12.8771 18.1248 10.8751C18.1248 8.87305 16.5019 7.25008 14.4998 7.25008C12.4978 7.25008 10.8748 8.87305 10.8748 10.8751C10.8748 12.8771 12.4978 14.5001 14.4998 14.5001Z" fill="#FE6A6A"/>
<path d="M14.8991 21.5553L14.6261 21.021L14.6261 21.021L14.8991 21.5553ZM14.1005 21.5553L13.8275 22.0895H13.8275L14.1005 21.5553ZM22.3582 10.8751C22.3582 13.7328 20.8785 16.0446 19.1344 17.7772C17.3914 19.5087 15.4377 20.6062 14.6261 21.021L15.1722 22.0895C16.037 21.6476 18.1128 20.4836 19.9802 18.6285C21.8465 16.7745 23.5582 14.1746 23.5582 10.8751H22.3582ZM14.4998 3.01675C18.8399 3.01675 22.3582 6.53504 22.3582 10.8751H23.5582C23.5582 5.8723 19.5026 1.81675 14.4998 1.81675V3.01675ZM6.6415 10.8751C6.6415 6.53504 10.1598 3.01675 14.4998 3.01675V1.81675C9.49706 1.81675 5.4415 5.8723 5.4415 10.8751H6.6415ZM14.3736 21.021C13.562 20.6062 11.6083 19.5087 9.86523 17.7772C8.12114 16.0446 6.6415 13.7328 6.6415 10.8751H5.4415C5.4415 14.1746 7.15318 16.7745 9.01951 18.6285C10.8869 20.4836 12.9627 21.6476 13.8275 22.0895L14.3736 21.021ZM14.6261 21.021C14.5439 21.063 14.4557 21.063 14.3736 21.021L13.8275 22.0895C14.2526 22.3068 14.7471 22.3068 15.1722 22.0895L14.6261 21.021ZM17.5248 10.8751C17.5248 12.5457 16.1705 13.9001 14.4998 13.9001V15.1001C16.8332 15.1001 18.7248 13.2085 18.7248 10.8751H17.5248ZM14.4998 7.85008C16.1705 7.85008 17.5248 9.20442 17.5248 10.8751H18.7248C18.7248 8.54168 16.8332 6.65008 14.4998 6.65008V7.85008ZM11.4748 10.8751C11.4748 9.20442 12.8292 7.85008 14.4998 7.85008V6.65008C12.1664 6.65008 10.2748 8.54168 10.2748 10.8751H11.4748ZM14.4998 13.9001C12.8292 13.9001 11.4748 12.5457 11.4748 10.8751H10.2748C10.2748 13.2085 12.1664 15.1001 14.4998 15.1001V13.9001Z" fill="#FE6A6A"/>
<path d="M23.918 21.1458C24.8725 21.6968 25.375 22.3219 25.375 22.9583C25.375 23.5946 24.8725 24.2197 23.918 24.7708C22.9635 25.3218 21.5907 25.7794 19.9375 26.0976C18.2843 26.4158 16.409 26.5833 14.5 26.5833C12.591 26.5833 10.7157 26.4158 9.0625 26.0976C7.40929 25.7794 6.03646 25.3218 5.08197 24.7708C4.12749 24.2197 3.625 23.5946 3.625 22.9583C3.625 22.3219 4.12749 21.6968 5.08197 21.1458" stroke="#FE6A6A" stroke-width="2" stroke-linecap="round"/>
</svg>