<svg width="23" height="28" viewBox="0 0 23 28" fill="none" xmlns="http://www.w3.org/2000/svg">
<path d="M6.0542 15.04L16.7245 15.04" stroke="#FE6A6A" stroke-width="2" stroke-linecap="round"/>
<path d="M6.0542 19.5327L12.2317 19.5327" stroke="#FE6A6A" stroke-width="2" stroke-linecap="round"/>
<path d="M1 3.4C1 2.55992 1 2.13988 1.16349 1.81901C1.3073 1.53677 1.53677 1.3073 1.81901 1.16349C2.13988 1 2.55992 1 3.4 1H12.4636C12.8247 1 13.0052 1 13.1754 1.04024C13.3263 1.07592 13.4708 1.13478 13.6037 1.21473C13.7535 1.30491 13.8826 1.43108 14.1409 1.68342L20.4947 7.89188C20.7613 8.15237 20.8946 8.28261 20.99 8.43547C21.0745 8.57098 21.1369 8.71913 21.1747 8.87432C21.2174 9.04937 21.2174 9.23573 21.2174 9.60846V24.4333C21.2174 25.2734 21.2174 25.6935 21.0539 26.0143C20.9101 26.2966 20.6806 26.526 20.3984 26.6698C20.0775 26.8333 19.6575 26.8333 18.8174 26.8333H3.4C2.55992 26.8333 2.13988 26.8333 1.81901 26.6698C1.53677 26.526 1.3073 26.2966 1.16349 26.0143C1 25.6935 1 25.2734 1 24.4333V3.4Z" stroke="#FE6A6A" stroke-width="2"/>
<path d="M12.2324 1V7.58551C12.2324 8.42559 12.2324 8.84563 12.3959 9.16649C12.5397 9.44874 12.7692 9.67821 13.0514 9.82202C13.3723 9.98551 13.7923 9.98551 14.6324 9.98551H21.2179" stroke="#FE6A6A" stroke-width="2"/>
</svg>